<svg xmlns="http://www.w3.org/2000/svg" fill="none" viewBox="0 0 420 480"><path d="M320.275 332.519c0 .73 33.103 116.796 33.103 116.796l-33.103-116.796Z" fill="#fff"/><path d="M352.525 449.557c-15.091-53.044-33.103-116.309-33.103-117.039h1.825-.973l.852-.122c.365 1.825 21.784 77.134 33.102 116.675l-1.703.486Z" fill="#060405"/><path d="M280.843 332.519c0 .73-33.103 116.796-33.103 116.796l33.103-116.796Z" fill="#fff"/><path d="m248.592 449.557-1.703-.486c11.318-39.541 32.737-114.85 33.102-116.675l.731.122h1.095c-.122.73-18.134 63.995-33.225 117.039Z" fill="#060405"/><path d="m276.462 427.294-2.921-2.677 15.943-17.519c5.963 4.988 17.038 14.234 17.16 14.113l-25.923 28.59c-10.344-7.665-4.259-22.507-4.259-22.507Z" fill="#6193F6"/><path d="M276.949 445.664a13.286 13.286 0 0 0 3.773 4.137l25.922-28.591s-1.825-1.338-4.381-3.406l-25.314 27.86Z" fill="#060405"/><path d="M363.357 228.011c1.339-6.327 3.408-22.386-18.133-18.493-13.022 2.311-34.077 27.496-34.077 27.496h-6.937l-37.849 71.902v27.617" fill="#fff"/><path d="M267.092 336.533h-1.217v-27.861l.122-.121 37.97-72.268h6.937c2.191-2.677 21.785-25.306 34.32-27.496 6.328-1.095 11.196-.608 14.482 1.46l-.608.974c-3.043-1.947-7.546-2.312-13.631-1.217-12.656 2.19-33.589 27.009-33.711 27.252l-.121.244h-6.816l-37.727 71.537v27.496Z" fill="#060405"/><path d="M176.181 302.346c-8.154 42.096 97.117 120.811 97.117 120.811 1.461 1.704 18.985-14.599 17.403-16.303l-55.982-88.326 37.727-17.763-3.651-21.291-28.113-1.095c.244 0-60.972 5.718-64.501 23.967Z" fill="#060405"/><path d="M163.403 431.552v-4.015h23.731c.365 7.665.974 22.143 1.096 22.143h-38.58c-1.338-12.653 13.753-18.128 13.753-18.128Z" fill="#6193F6"/><path d="M150.137 444.204c-.487 1.704-.73 3.529-.487 5.475h38.579c-.121 0-.243-2.311-.365-5.475h-37.727Zm48.924-146.481c-20.446 22.629-35.659 132.004-35.659 132.004 0 2.433 23.854 4.014 23.854 1.703l47.463-99.033s59.877 8.759 72.777 0c12.901-8.76 19.107-40.879 19.107-40.879l-36.388-4.745s-75.211-6.57-91.154 10.95Z" fill="#060405"/><path d="m185.308 330.207-.609-.121c2.678-9.247 5.477-18.736 9.98-27.375 1.217-2.311 2.677-4.744 4.746-6.691 2.191-2.068 4.99-3.163 7.546-2.92v.608c-2.435-.121-4.99.852-7.059 2.799-1.947 1.825-3.408 4.258-4.503 6.569-4.625 8.395-7.424 17.885-10.101 27.131Zm30.303 41.487-.487-.365c5.477-7.543 9.737-15.938 12.536-24.819l.608.122c-2.921 9.003-7.058 17.519-12.657 25.062Zm50.871-35.16h63.041c3.651 0 6.816-2.434 7.667-5.962l26.166-102.561" fill="#fff"/><path d="M329.523 337.142h-63.041v-1.217h63.041c3.408 0 6.329-2.312 7.059-5.475l26.166-102.561 1.217.243-26.166 102.561c-.973 3.772-4.381 6.449-8.276 6.449Z" fill="#060405"/><path d="M234.719 200.15c-.852-.122-18.377 36.377-18.377 36.377l-63.163 11.558-1.095 17.032 93.223 2.677 7.059-65.576-17.647-2.068Z" fill="#fff"/><path d="M245.793 268.524h-.608l-93.831-2.676 1.095-18.128 63.406-11.558c17.647-36.62 18.377-36.62 18.864-36.499l18.255 2.19-7.181 66.671Zm-93.101-3.893 92.006 2.677 6.937-64.36-16.795-2.068c-1.582 2.19-11.561 22.507-18.133 36.012l-.122.243-63.041 11.558-.852 15.938Z" fill="#060405"/><path d="m243.116 175.817-14.97 25.549 14.848 11.68.122-37.229Z" fill="#6556FF"/><path d="M348.874 177.033c-2.92-9.368-34.198-28.104-34.198-28.104l-31.642-.973s-31.52 15.573-39.674 27.496c-4.138 6.083-13.387 106.698-13.387 106.698h98.456c0 .121 24.583-91.977 20.445-105.117Z" fill="#6556FF"/><path d="M283.886 135.06s2.069 7.543-1.096 13.14c-2.434 4.258-1.46 11.558 4.503 13.139 9.615 2.555 26.531-12.409 26.531-12.409l-7.91-41.974-22.028 28.104Z" fill="#fff"/><path d="M287.172 161.947c-2.434-.608-4.26-2.311-5.355-4.623-1.217-2.92-1.096-6.691.487-9.368 2.068-3.65 1.947-9.003.973-13.018l23.123-29.442 8.154 43.677-.243.243c-6.207 5.353-19.229 14.6-27.139 12.531Zm-2.678-26.765c.365 1.46 1.704 8.151-1.217 13.383-1.339 2.433-1.46 5.718-.365 8.273.609 1.46 1.947 3.285 4.503 4.015 8.519 2.189 23.61-10.22 25.679-12.045l-7.546-40.392-21.054 26.766Z" fill="#060405"/><path d="M306.035 102.333c-.243.609 1.826 34.674-18.742 35.647-20.689.974-22.028-41.73-14.482-52.436 7.545-10.706 27.382-5.353 27.382-5.353l8.398 13.626-2.556 8.516Z" fill="#fff"/><path d="M286.564 138.588c-5.598 0-10.223-3.163-13.508-9.125-7.059-12.896-6.451-36.255-.852-44.285 7.667-10.95 27.139-5.84 27.991-5.596l.243.122 8.641 13.99-2.556 8.76v.974c-.121 22.021-7.058 34.552-19.35 35.16h-.609Zm2.799-59.128c-5.72 0-12.413 1.338-16.064 6.448-5.355 7.543-5.842 30.659.852 43.069 3.286 5.84 7.667 8.759 13.022 8.516 11.683-.608 18.012-12.288 18.133-33.944 0-.973 0-1.216.122-1.338l2.434-8.273-8.154-13.14c-.974-.365-5.355-1.338-10.345-1.338Z" fill="#060405"/><path d="M309.444 125.084s10.953-22.021.243-42.217c-10.709-20.196-33.589-15.451-41.013-22.508 0 0-12.413 7.908-2.677 18.615 0 0-5.477 3.041-11.562-1.947 0 0-1.217 7.543 3.895 14.113 9.249 11.923 32.494-2.19 35.901-1.582-1.095 8.638 11.805 19.223 11.805 19.223l3.408 16.303Z" fill="#060405"/><path d="M266.482 336.533s3.408-32.727 15.335-43.799c17.768-16.546 48.072-15.694 56.347-26.157 5.477-7.665 8.032-16.789 12.414-33.822l6.815 14.356s-17.768 44.285-18.133 45.015c-.487.852-40.162 36.012-40.162 36.012l-32.616 8.395Z" fill="#fff"/><path d="m267.092 336.534-1.217-.122c.122-1.338 3.529-33.092 15.578-44.163 9.736-9.003 23.001-12.897 34.684-16.303 9.615-2.798 17.89-5.11 21.542-9.733 4.381-6.083 6.936-13.505 9.857-24.211l1.217.365c-2.921 10.828-5.598 18.371-10.101 24.697-3.894 4.989-12.413 7.422-22.149 10.22-11.562 3.285-24.706 7.178-34.198 15.938-11.684 10.706-15.213 42.947-15.213 43.312Z" fill="#060405"/><path d="M329.523 337.141h-63.041v-1.216h63.041c3.408 0 6.329-2.312 7.059-5.475l26.166-102.561c1.704-8.274.365-13.87-3.773-16.547l.609-.973c4.746 2.92 6.206 9.003 4.381 17.885l-26.166 102.561c-.974 3.65-4.381 6.326-8.276 6.326Z" fill="#060405"/><path d="M157.804 274.729H71.883v11.192h85.921v-11.192Z" fill="#fff"/><path d="M158.29 286.53H71.152v-12.41h87.138v12.41Zm-85.799-1.217h84.704v-9.976H72.491v9.976Z" fill="#060405"/><path d="M339.016 274.729H157.682v11.192h181.334v-11.192Z" fill="#BDD6FF"/><path d="M339.626 286.53H157.074v-12.41h182.552v12.41Zm-181.335-1.217h180.117v-9.976H158.291v9.976Zm81.234-95.046-2.039 18.87 1.21.13 2.039-18.869-1.21-.131Z" fill="#060405"/><path d="m292.314 285.701-1.794.335 30.572 163.357 1.794-.336-30.572-163.356Zm-181.146.134L80.644 449.2l1.795.335 30.524-163.365-1.795-.335Zm178.326-178.52c.801-.097 1.339-1.095 1.202-2.229-.136-1.134-.897-1.975-1.697-1.878-.801.097-1.339 1.094-1.202 2.228.137 1.134.897 1.975 1.697 1.879Zm-13.382 2.064c.8-.096 1.339-1.094 1.202-2.228-.137-1.134-.897-1.975-1.698-1.879-.801.097-1.339 1.095-1.202 2.229.137 1.134.897 1.975 1.698 1.878Zm8.382 9.744c-.243-.122-.487-.122-1.338-.122-.974 0-1.704-.365-1.948-1.095-.365-.852.244-1.582.609-2.068 1.46-2.19 1.825-4.988.852-7.422l1.095-.486c1.095 2.798.73 6.083-.974 8.516-.243.365-.486.73-.486.973.121.122.486.365.852.365.73 0 1.338-.121 1.947.244l-.609 1.095Zm2.313 9.854.243-1.216c.852.243 1.826 0 2.556-.487s1.338-1.217 1.46-2.19l1.217.243c-.243 1.217-.973 2.19-2.069 2.92-.973.852-2.312 1.095-3.407.73Z" fill="#060405"/><path d="m354.472 210.126-21.176 57.912c-1.461 3.893-5.355 6.205-9.371 5.475l-85.312-15.087c-4.99-.486-7.303.365-11.075 2.799-3.773 2.555-7.789-.244-7.789-.244s-5.598 5.232-8.154 6.448c-2.556 1.217-5.72 0-5.72 0s16.551-17.519 19.837-19.831c5.112-3.649 12.292-4.744 12.292-4.744l70.1-3.285 17.646-41.244 28.722 11.801Z" fill="#fff"/><path d="M325.386 274.242c-.487 0-1.095 0-1.582-.121l-85.312-15.087c-4.868-.486-6.937.244-10.71 2.677-3.407 2.19-6.815.608-8.032 0-1.339 1.217-5.72 5.11-7.911 6.205-2.677 1.216-5.963.121-6.085 0l-.852-.365.609-.608c.73-.73 16.551-17.642 19.837-19.953 5.233-3.65 12.292-4.867 12.535-4.867l69.735-3.285 17.768-41.486 29.817 12.409-21.298 58.52a9.037 9.037 0 0 1-8.519 5.961Zm-89.207-16.424c.731 0 1.583 0 2.435.121l85.434 15.087c3.772.608 7.423-1.46 8.762-4.989l20.933-57.424-27.627-11.437-17.646 40.879-70.465 3.285s-7.059 1.095-12.048 4.623c-2.8 1.947-15.822 15.695-18.986 18.98 1.096.243 2.799.486 4.26-.244 2.434-1.095 7.91-6.205 8.032-6.326l.365-.365.365.243c.122.122 3.651 2.555 7.059.243 3.286-1.703 5.476-2.676 9.127-2.676Z" fill="#060405"/><path d="M347.78 174.479s6.328 9.124 7.545 12.531c3.53 10.219.487 42.095.487 42.095L312 221.927l7.789-19.588" fill="#6556FF"/><path d="m355.689 229.714-44.543-7.3 5.964-13.748 1.095.365-5.355 12.41 43.082 7.178-.243 1.095Z" fill="#060405"/><path d="M194.313 265.238c-114.155 0-107.583.122-108.922-.122-2.92-.486-5.476-2.554-6.572-5.474l-18.011-51.707c-2.191-5.718 2.069-11.801 8.154-11.801h94.683c3.651 0 6.815 2.19 8.154 5.596l22.514 63.508Z" fill="#fff"/><path d="M82.714 257.695c.973 2.433 1.825 4.867 2.677 7.421-2.92-.486-5.476-2.554-6.572-5.474l-18.011-51.707c-2.191-5.718 2.069-11.801 8.154-11.801h27.87c-6.451 2.19-11.806 5.231-15.7 11.071-4.747 7.3-6.085 16.546-5.234 25.306.852 8.516 3.773 16.911 6.816 25.184Z" fill="#BDD6FF"/><path d="M195.166 265.847c-114.642 0-108.435.122-109.896-.122a9.56 9.56 0 0 1-7.058-5.84L60.2 208.057c-2.313-6.083 2.19-12.653 8.762-12.653h94.684c3.894 0 7.423 2.434 8.762 5.962l22.758 64.481ZM68.962 196.621c-5.72 0-9.614 5.718-7.545 10.95l18.012 51.706c.973 2.555 3.407 4.623 6.085 5.11 1.338.243-4.99.122 107.948.122l-22.271-62.778c-1.217-3.163-4.259-5.232-7.545-5.232H68.962v.122Z" fill="#060405"/><path d="M156.344 200.879c3.286 0 6.085 1.947 7.302 4.988l17.038 48.057" fill="#fff"/><path d="m180.076 254.167-17.039-48.057c-1.095-2.798-3.772-4.623-6.693-4.623v-1.216c3.529 0 6.572 2.189 7.91 5.474l17.039 48.057-1.217.365Zm63.284 15.694v1.704c0 1.825-1.46 3.163-3.164 3.163H90.99c-2.677 0-4.746-2.19-4.746-4.745 0-2.676 2.19-4.745 4.746-4.745h147.745a4.622 4.622 0 0 1 4.625 4.623Z" fill="#060405"/><path d="M240.073 275.336H90.99c-2.921 0-5.355-2.433-5.355-5.353s2.434-5.353 5.355-5.353h147.744a5.194 5.194 0 0 1 5.234 5.231v1.704c0 2.068-1.704 3.771-3.895 3.771ZM90.99 265.847a4.102 4.102 0 0 0-4.138 4.136 4.103 4.103 0 0 0 4.138 4.137h149.083c1.461 0 2.556-1.217 2.556-2.555v-1.704c0-2.19-1.826-4.014-4.016-4.014H90.99Z" fill="#060405"/><path d="M389.628 89.055h-60.021a4.558 4.558 0 0 0-4.208 2.811 4.57 4.57 0 0 0-.346 1.743v38.807a4.54 4.54 0 0 0 1.334 3.22 4.551 4.551 0 0 0 3.22 1.334h5.27l.627 11.915a.752.752 0 0 0 1.39.354l7.551-12.269h45.183a4.554 4.554 0 0 0 4.554-4.554V93.609a4.552 4.552 0 0 0-2.811-4.208 4.558 4.558 0 0 0-1.743-.346Z" fill="#fff"/><path d="m334.451 148.941-.574-10.917h-4.269a5.615 5.615 0 0 1-5.608-5.608V93.608A5.617 5.617 0 0 1 329.608 88h60.02a5.612 5.612 0 0 1 5.607 5.608v38.808a5.615 5.615 0 0 1-5.607 5.609h-44.596l-7.241 11.767a1.809 1.809 0 0 1-3.34-.851Zm-4.843-58.833a3.503 3.503 0 0 0-3.5 3.5v38.808a3.503 3.503 0 0 0 3.5 3.5h5.27a1.054 1.054 0 0 1 1.054.998l.575 10.946 7.042-11.442a1.056 1.056 0 0 1 .897-.501h45.182a3.503 3.503 0 0 0 3.499-3.5V93.608a3.504 3.504 0 0 0-3.499-3.5h-60.02Z" fill="#090817"/><g clip-path="url(#a)"><path d="M351.241 117.221 346 111.98l17.018-17.017H373.5m0 15.703h-10.482l-3.926 3.926 5.242 5.242" fill="#42A5F5" fill-opacity=".8"/><path d="m359.092 125.074 3.926 3.926h10.481l-9.166-9.166" fill="#0D47A1"/><path d="m353.863 119.836 5.233-5.234 5.233 5.233-5.233 5.234-5.233-5.233Z" fill="#42A5F5"/><path d="m359.096 125.069 5.233-5.233.73.73-5.233 5.233-.73-.73Z" fill="url(#b)"/><path d="m359.092 125.073 7.776-2.686-2.535-2.555" fill="url(#c)"/></g><path d="M210.628 114.055h-60.021a4.554 4.554 0 0 0-4.554 4.554v38.807a4.54 4.54 0 0 0 1.334 3.22 4.551 4.551 0 0 0 3.22 1.334h5.27l.627 11.915a.752.752 0 0 0 1.39.354l7.551-12.269h45.183a4.554 4.554 0 0 0 4.554-4.554v-38.807a4.555 4.555 0 0 0-4.554-4.554Z" fill="#fff"/><path d="m155.451 173.941-.574-10.917h-4.269a5.615 5.615 0 0 1-5.608-5.608v-38.808a5.619 5.619 0 0 1 1.644-3.964 5.619 5.619 0 0 1 3.964-1.644h60.02a5.611 5.611 0 0 1 5.607 5.608v38.808a5.615 5.615 0 0 1-5.607 5.609h-44.596l-7.241 11.767a1.809 1.809 0 0 1-3.34-.851Zm-4.843-58.833a3.503 3.503 0 0 0-3.5 3.5v38.808a3.503 3.503 0 0 0 3.5 3.5h5.27a1.054 1.054 0 0 1 1.054.998l.575 10.946 7.042-11.442a1.056 1.056 0 0 1 .897-.501h45.182a3.503 3.503 0 0 0 3.499-3.5v-38.809a3.502 3.502 0 0 0-3.499-3.5h-60.02Z" fill="#090817"/><g clip-path="url(#d)"><path d="M189.426 142.658c-.799 0-1.45-.651-1.45-1.45a1.451 1.451 0 1 1 1.45 1.45Zm-16.028 0a1.451 1.451 0 1 1 1.45-1.45c0 .8-.65 1.45-1.45 1.45Zm16.548-8.735 2.898-5.019a.605.605 0 0 0-.22-.824.605.605 0 0 0-.824.221l-2.934 5.083c-2.244-1.024-4.765-1.595-7.454-1.595s-5.209.571-7.453 1.595l-2.935-5.083a.603.603 0 0 0-1.044.603l2.898 5.019c-4.976 2.707-8.38 7.745-8.878 13.697h34.824c-.498-5.952-3.902-10.99-8.878-13.697" fill="#3DDB85"/></g><path d="M202.608 6.055h60.022a4.548 4.548 0 0 1 3.22 1.334 4.554 4.554 0 0 1 1.334 3.22v38.807a4.552 4.552 0 0 1-2.812 4.208 4.55 4.55 0 0 1-1.742.346h-5.27l-.628 11.915a.746.746 0 0 1-.564.689.753.753 0 0 1-.826-.335l-7.55-12.269h-45.184a4.55 4.55 0 0 1-4.207-2.811 4.552 4.552 0 0 1-.347-1.743V10.61a4.552 4.552 0 0 1 2.812-4.208 4.548 4.548 0 0 1 1.742-.346Z" fill="#fff"/><path d="m257.785 65.94.575-10.916h4.269a5.614 5.614 0 0 0 5.607-5.608V10.608A5.613 5.613 0 0 0 262.629 5h-60.021a5.614 5.614 0 0 0-5.607 5.608v38.808a5.614 5.614 0 0 0 5.607 5.609h44.597l7.241 11.767a1.806 1.806 0 0 0 3.339-.851Zm4.843-58.832a3.505 3.505 0 0 1 3.5 3.5v38.808a3.504 3.504 0 0 1-3.5 3.5h-5.27a1.053 1.053 0 0 0-1.054.998l-.575 10.946-7.041-11.442a1.06 1.06 0 0 0-.898-.501h-45.182a3.506 3.506 0 0 1-3.499-3.5V10.608a3.504 3.504 0 0 1 3.499-3.5h60.02Z" fill="#090817"/><g fill="#61DAFB" clip-path="url(#e)"><path d="M243.06 27.873c0-1.417-1.849-2.76-4.683-3.593.654-2.773.363-4.98-.918-5.686a2.055 2.055 0 0 0-1.017-.244v.973c.209 0 .377.039.517.113.618.34.886 1.635.677 3.3-.05.41-.131.842-.231 1.283-.891-.21-1.863-.37-2.885-.475a21.527 21.527 0 0 0-1.889-2.18c1.48-1.322 2.87-2.046 3.815-2.046v-.972c-1.249 0-2.884.854-4.537 2.337-1.654-1.474-3.289-2.32-4.538-2.32v.973c.94 0 2.334.72 3.815 2.032a20.784 20.784 0 0 0-1.876 2.176 22.057 22.057 0 0 0-2.889.48 13.05 13.05 0 0 1-.236-1.265c-.213-1.666.05-2.961.663-3.306.137-.078.314-.113.523-.113v-.973a2.09 2.09 0 0 0-1.027.245c-1.276.706-1.562 2.908-.904 5.673-2.825.837-4.665 2.176-4.665 3.588 0 1.418 1.849 2.76 4.683 3.594-.654 2.773-.363 4.98.918 5.686.295.166.64.244 1.022.244 1.249 0 2.884-.855 4.538-2.337 1.653 1.474 3.288 2.32 4.537 2.32a2.09 2.09 0 0 0 1.027-.245c1.276-.706 1.563-2.908.904-5.673 2.816-.833 4.656-2.176 4.656-3.588Zm-5.914-2.908a18.838 18.838 0 0 1-.614 1.722 22.239 22.239 0 0 0-1.249-2.067 21.26 21.26 0 0 1 1.863.345Zm-2.081 4.644a22.99 22.99 0 0 1-1.094 1.666 24.616 24.616 0 0 1-4.097.004 22.782 22.782 0 0 1-2.045-3.392 23.012 23.012 0 0 1 2.035-3.406 24.622 24.622 0 0 1 4.098-.004 22.765 22.765 0 0 1 2.044 3.392c-.287.584-.6 1.169-.941 1.74Zm1.467-.567a18 18 0 0 1 .627 1.736 21.12 21.12 0 0 1-1.871.349 24.082 24.082 0 0 0 1.244-2.084Zm-4.605 4.653a18.136 18.136 0 0 1-1.263-1.395c.409.017.827.03 1.249.03.427 0 .849-.009 1.263-.03a17.3 17.3 0 0 1-1.249 1.395Zm-3.38-2.569a21.2 21.2 0 0 1-1.862-.344 19.14 19.14 0 0 1 .613-1.722c.186.349.382.697.595 1.046.214.349.432.69.654 1.02Zm3.357-9.074c.422.419.845.885 1.263 1.396a24.949 24.949 0 0 0-2.512-.001c.39-.486.807-.952 1.249-1.395Zm-3.361 2.569a23.533 23.533 0 0 0-1.245 2.08 18.255 18.255 0 0 1-.627-1.736 22.861 22.861 0 0 1 1.872-.344Zm-4.111 5.459c-1.608-.658-2.648-1.522-2.648-2.206 0-.685 1.04-1.553 2.648-2.207a14.54 14.54 0 0 1 1.258-.44 20.5 20.5 0 0 0 1.022 2.655 20.051 20.051 0 0 0-1.008 2.643c-.45-.135-.877-.284-1.272-.445Zm2.444 6.231c-.618-.34-.886-1.635-.677-3.3.05-.41.132-.842.231-1.283.891.21 1.863.371 2.885.476a21.599 21.599 0 0 0 1.889 2.18c-1.48 1.321-2.87 2.045-3.815 2.045a1.12 1.12 0 0 1-.513-.118Zm10.774-3.322c.213 1.665-.05 2.96-.663 3.305a1.055 1.055 0 0 1-.523.113c-.94 0-2.334-.72-3.815-2.032a20.774 20.774 0 0 0 1.876-2.176 22.057 22.057 0 0 0 2.889-.48c.104.441.186.864.236 1.27Zm1.749-2.909c-.391.161-.818.305-1.259.44a20.352 20.352 0 0 0-1.022-2.655c.418-.907.754-1.792 1.009-2.643.45.136.876.284 1.276.445 1.608.659 2.648 1.522 2.648 2.206-.004.685-1.044 1.553-2.652 2.207Z"/><path d="M231.912 29.866c1.147 0 2.076-.892 2.076-1.992 0-1.101-.929-1.993-2.076-1.993-1.146 0-2.075.892-2.075 1.993 0 1.1.929 1.992 2.075 1.992Zm-10.125 10.962h-.685v1.133h-.387v-2.8h.966c.328 0 .581.071.757.215.178.144.266.353.266.627a.73.73 0 0 1-.148.456.868.868 0 0 1-.409.29l.686 1.189v.023h-.413l-.633-1.133Zm-.685-.302h.591c.191 0 .342-.047.454-.142a.47.47 0 0 0 .171-.381c0-.173-.054-.306-.163-.398-.106-.092-.261-.14-.464-.14h-.589v1.061ZM224.087 42c-.294 0-.533-.093-.717-.277-.185-.186-.277-.434-.277-.745v-.065c0-.207.041-.39.122-.552a.937.937 0 0 1 .345-.381.894.894 0 0 1 .481-.138c.282 0 .501.089.657.267.156.178.234.433.234.765v.148h-1.468a.726.726 0 0 0 .186.499c.12.125.273.188.457.188a.669.669 0 0 0 .333-.077.824.824 0 0 0 .238-.204l.226.17c-.181.268-.454.402-.817.402Zm-.046-1.866a.504.504 0 0 0-.377.157.745.745 0 0 0-.188.44h1.086v-.028a.67.67 0 0 0-.152-.42.475.475 0 0 0-.369-.15Zm2.661 1.827a.695.695 0 0 1-.052-.22.845.845 0 0 1-.618.259.794.794 0 0 1-.527-.173.558.558 0 0 1-.204-.443.58.58 0 0 1 .257-.504c.172-.12.414-.18.725-.18h.361v-.164a.386.386 0 0 0-.117-.296c-.077-.075-.191-.112-.342-.112a.557.557 0 0 0-.333.096c-.089.064-.134.142-.134.233h-.373c0-.104.038-.204.114-.3a.794.794 0 0 1 .313-.23c.132-.057.277-.085.435-.085.25 0 .445.06.587.18.141.12.215.284.22.495v.957c0 .192.026.344.076.456v.031h-.388Zm-.615-.271a.67.67 0 0 0 .33-.087.538.538 0 0 0 .227-.225v-.427h-.291c-.454 0-.681.128-.681.383a.32.32 0 0 0 .116.262.459.459 0 0 0 .299.094Zm2.378.02a.545.545 0 0 0 .346-.116.403.403 0 0 0 .165-.289h.35a.622.622 0 0 1-.128.34.834.834 0 0 1-.316.258.935.935 0 0 1-.417.097c-.295 0-.53-.095-.705-.283-.174-.19-.261-.449-.261-.777v-.06c0-.202.039-.383.116-.54a.87.87 0 0 1 .333-.368.98.98 0 0 1 .515-.13c.243 0 .445.07.605.21.162.139.248.32.258.544h-.35a.5.5 0 0 0-.513-.462.528.528 0 0 0-.439.196c-.103.13-.154.317-.154.564v.067c0 .24.051.424.154.554a.53.53 0 0 0 .441.194Zm1.781-2.334v.504h.405v.275h-.405v1.29c0 .084.018.147.054.19.036.04.098.06.185.06a.939.939 0 0 0 .176-.022v.288a1.126 1.126 0 0 1-.285.039c-.165 0-.29-.048-.374-.145-.085-.096-.127-.232-.127-.41v-1.29h-.394v-.275h.394v-.504h.371Zm4.158 2.585h-.387l-1.469-2.158v2.158h-.386v-2.8h.386l1.473 2.167v-2.167h.383v2.8Zm1.963 0a.724.724 0 0 1-.052-.22.843.843 0 0 1-.617.259.79.79 0 0 1-.527-.173.558.558 0 0 1-.204-.443c0-.217.085-.385.256-.504.172-.12.414-.18.725-.18h.361v-.164a.39.39 0 0 0-.116-.296c-.078-.075-.192-.112-.343-.112a.553.553 0 0 0-.332.096c-.09.064-.135.142-.135.233h-.372c0-.104.038-.204.114-.3a.79.79 0 0 1 .312-.23c.133-.057.278-.085.435-.085.25 0 .446.06.587.18.142.12.215.284.221.495v.957c0 .192.025.344.076.456v.031h-.389Zm-.615-.271a.677.677 0 0 0 .331-.087.535.535 0 0 0 .226-.225v-.427h-.291c-.454 0-.681.128-.681.383a.32.32 0 0 0 .116.262.46.46 0 0 0 .299.094Zm2.012-2.314v.504h.404v.275h-.404v1.29c0 .084.018.147.054.19.036.04.097.06.184.06a.92.92 0 0 0 .176-.022v.288a1.113 1.113 0 0 1-.284.039c-.166 0-.291-.048-.375-.145-.084-.096-.126-.232-.126-.41v-1.29h-.395v-.275h.395v-.504h.371Zm1.242 2.585h-.371V39.88h.371v2.081Zm-.401-2.633a.21.21 0 0 1 .054-.146c.038-.04.092-.06.164-.06.073 0 .127.02.165.06.037.04.056.088.056.146a.2.2 0 0 1-.056.144c-.038.039-.092.058-.165.058-.072 0-.126-.02-.164-.058a.203.203 0 0 1-.054-.144Zm1.711 2.15.537-1.598h.379l-.778 2.081h-.282l-.785-2.081h.378l.551 1.598Zm2.144.522c-.294 0-.533-.093-.717-.277-.185-.186-.277-.434-.277-.745v-.065c0-.207.041-.39.122-.552a.937.937 0 0 1 .345-.381.894.894 0 0 1 .481-.138c.282 0 .501.089.657.267.156.178.235.433.235.765v.148h-1.469a.726.726 0 0 0 .186.499c.12.125.273.188.457.188a.669.669 0 0 0 .333-.077.824.824 0 0 0 .238-.204l.227.17c-.182.268-.455.402-.818.402Zm-.046-1.866a.504.504 0 0 0-.377.157.745.745 0 0 0-.188.44h1.086v-.028a.67.67 0 0 0-.152-.42.475.475 0 0 0-.369-.15Z"/></g><path d="M29.608 106.055H89.63a4.55 4.55 0 0 1 4.555 4.554v38.807a4.557 4.557 0 0 1-4.555 4.554h-5.27l-.627 11.915a.752.752 0 0 1-1.39.354l-7.55-12.269H29.608a4.55 4.55 0 0 1-4.554-4.554v-38.807a4.558 4.558 0 0 1 2.812-4.208 4.55 4.55 0 0 1 1.742-.346Z" fill="#fff"/><path d="m84.785 165.941.575-10.917h4.269a5.613 5.613 0 0 0 5.607-5.608v-38.808A5.616 5.616 0 0 0 89.628 105h-60.02a5.613 5.613 0 0 0-5.607 5.608v38.808a5.615 5.615 0 0 0 5.607 5.609h44.596l7.242 11.767a1.807 1.807 0 0 0 3.34-.851Zm4.843-58.833a3.503 3.503 0 0 1 3.5 3.5v38.808a3.503 3.503 0 0 1-3.5 3.5h-5.27a1.055 1.055 0 0 0-1.054.998l-.575 10.946-7.041-11.442a1.06 1.06 0 0 0-.898-.501H29.608a3.504 3.504 0 0 1-3.5-3.5v-38.809a3.503 3.503 0 0 1 3.5-3.5h60.02Z" fill="#090817"/><path d="M66.717 141.071c-1.487 1.442-3.11 1.214-4.674.531-1.654-.698-3.172-.728-4.917 0-2.185.941-3.339.668-4.644-.531-7.406-7.633-6.313-19.258 2.094-19.683 2.05.106 3.476 1.123 4.675 1.214 1.79-.364 3.505-1.412 5.418-1.275 2.291.182 4.021 1.093 5.16 2.732-4.735 2.838-3.612 9.075.728 10.82-.865 2.277-1.988 4.538-3.855 6.207l.015-.015ZM59.1 121.297c-.228-3.385 2.52-6.177 5.676-6.45.44 3.915-3.551 6.829-5.676 6.45Z" fill="#282B2F"/><g clip-path="url(#f)"><path d="m145.286 237.593-1.101-16.501c-.075-1.122-.87-1.783-1.956-1.711l-9.99.667c-1.01.067-1.858.876-1.746 1.996l1.296 19.419c.072 1.085.985 1.813 1.993 1.709l9.953-.665c1.01-.067 1.863-.8 1.781-2.035a73.03 73.03 0 0 1-.23-2.879Zm-6.537 4.533c-.599.04-1.121-.451-1.16-1.05a1.088 1.088 0 0 1 2.17-.145c.042.636-.412 1.155-1.01 1.195Zm5.382-3.253-11.15.744-1.133-16.987 11.15-.744 1.133 16.987Z" fill="#0F0039"/></g><g clip-path="url(#g)"><path d="m118.429 217.48-13.946 1.219a2.501 2.501 0 0 0-2.273 2.708l1.655 18.928a2.5 2.5 0 0 0 2.708 2.273l13.947-1.219a2.502 2.502 0 0 0 2.273-2.709l-1.655-18.927a2.502 2.502 0 0 0-2.709-2.273Zm-4.97 23.522a1.498 1.498 0 0 1-1.624-1.364 1.498 1.498 0 0 1 1.363-1.625 1.498 1.498 0 0 1 1.625 1.364 1.498 1.498 0 0 1-1.364 1.625Zm7.124-4.638-14.943 1.307-1.394-15.94 14.943-1.306 1.394 15.939Z" fill="#0F0039"/></g><defs><clipPath id="a"><path d="M346 94.963h27.5V129H346z" fill="#fff"/></clipPath><clipPath id="d"><path d="M158 125h46v25.879h-46z" fill="#fff"/></clipPath><clipPath id="e"><path d="M220 16h23.833v26H220z" fill="#fff"/></clipPath><clipPath id="f"><path d="m125.231 220.13 23.947-1.598 1.598 23.947-23.947 1.598z" fill="#fff"/></clipPath><clipPath id="g"><path d="m100 219.09 23.908-2.09 2.09 23.908-23.908 2.09z" fill="#fff"/></clipPath><linearGradient id="b" x1="361.713" x2="362.444" y1="122.451" y2="123.182" gradientUnits="userSpaceOnUse"><stop offset=".2" stop-opacity=".15"/><stop offset=".85" stop-color="#616161" stop-opacity=".01"/></linearGradient><linearGradient id="c" x1="359.094" x2="366.87" y1="122.453" y2="122.453" gradientUnits="userSpaceOnUse"><stop offset=".2" stop-opacity=".55"/><stop offset=".85" stop-color="#616161" stop-opacity=".01"/></linearGradient></defs></svg>